<svg width="238" height="240" viewBox="0 0 238 240" fill="none" xmlns="http://www.w3.org/2000/svg">
<path d="M197.621 238.295C209.565 231.107 225.434 221.08 235.858 212.069M235.858 212.069C237.06 211.031 226.957 204.714 226.466 204.462C215.716 198.928 204.572 194.971 193.127 191.182M235.858 212.069C163.971 235.924 91.965 209.851 68.0797 161.397C65.7124 156.595 63.1408 151.366 61.0455 145.93M61.0455 145.93C57.7086 137.273 55.5795 128.093 57.4068 119.281C59.0936 111.149 64.7148 101.265 72.988 98.6208C88.4428 93.681 101.512 110.786 96.3173 125.544C91.753 138.512 74.3218 148.856 61.0455 145.93ZM61.0455 145.93C60.7654 145.868 60.4872 145.801 60.211 145.727C-6.45126 127.957 -10.5657 46.905 23.1808 1.62599" stroke="#D14BF9" stroke-width="3" stroke-miterlimit="1.5" stroke-linecap="round" stroke-linejoin="round"/>
</svg>
